<svg width="100%" viewBox="0 0 680 420" xmlns="http://www.w3.org/2000/svg">
  <defs>
    <clipPath id="clipSunset"><circle cx="340" cy="185" r="110"/></clipPath>
    <linearGradient id="fullGrad" x1="0" y1="0" x2="0" y2="1">
      <stop offset="0%" stop-color="#fde8c0"/>
      <stop offset="25%" stop-color="#fbc98a"/>
      <stop offset="48%" stop-color="#f4a259"/>
      <stop offset="62%" stop-color="#e8845a"/>
      <stop offset="75%" stop-color="#d4704a"/>
      <stop offset="88%" stop-color="#b85540"/>
      <stop offset="100%" stop-color="#8a3a28"/>
    </linearGradient>
    <radialGradient id="sunHalo" cx="50%" cy="50%" r="50%">
      <stop offset="0%" stop-color="#fffbf0" stop-opacity="1"/>
      <stop offset="25%" stop-color="#fff5dc" stop-opacity="0.85"/>
      <stop offset="50%" stop-color="#fdebc8" stop-opacity="0.35"/>
      <stop offset="75%" stop-color="#fdebc8" stop-opacity="0.12"/>
      <stop offset="100%" stop-color="#fdebc8" stop-opacity="0"/>
    </radialGradient>
  </defs>

  <circle cx="340" cy="185" r="110" fill="#f4a259"/>

  <g clip-path="url(#clipSunset)">
    <rect x="230" y="75" width="220" height="220" fill="url(#fullGrad)"/>
    <ellipse cx="362" cy="168" rx="48" ry="48" fill="url(#sunHalo)"/>
    <path d="M230,218
             C236,218 246,205 258,170
             C262,158 267,165 272,174
             C276,182 282,194 290,200
             C296,190 306,168 320,148
             C328,136 336,136 344,146
             C352,160 360,172 368,176
             C374,164 382,154 392,153
             C398,152 405,160 412,170
             C418,180 426,192 436,202
             C442,210 448,218 450,218 Z"
          fill="#6b2510"/>
    <path d="M230,218
             L244,207 C244.5,206 245.5,206 246,207 L251,218
             L258,204 C258.5,203 259.5,203 260,204 L266,218
             L275,201 C275.5,200 276.5,200 277,201 L283,218
             L292,204 C292.5,203 293.5,203 294,204 L300,218
             L310,206 C310.5,205 311.5,205 312,206 L318,218
             L328,204 C328.5,203 329.5,203 330,204 L336,218
             L346,206 C346.5,205 347.5,205 348,206 L354,218
             L362,207 C362.5,206 363.5,206 364,207 L370,218
             L376,207 C376.5,206 377.5,206 378,207 L382,218
             L387,204 C387.5,203 388.5,203 389,204 L393,218
             L398,208 C398.5,207 399.5,207 400,208 L404,218
             L408,205 C408.5,204 409.5,204 410,205 L414,218
             L418,208 C418.3,207 419,207 419.3,208 L422,218
             L425,206 C425.3,205 426,205 426.3,206 L429,218
             L432,209 C432.2,208 432.8,208 433,209 L435,218
             L437,211 C437.2,210 437.8,210 438,211 L440,218
             L450,218 Z" fill="#5a1e0e" opacity="0.9"/>
    <text x="340" y="258" text-anchor="middle" font-family="sans-serif" font-size="22" font-weight="500" fill="#fdf3e0" letter-spacing="8">ROAM</text>
  </g>

  <circle cx="340" cy="185" r="110" fill="none" stroke="#c45e30" stroke-width="1.5"/>
  <circle cx="340" cy="185" r="116" fill="none" stroke="#f4a259" stroke-width="0.5" opacity="0.5"/>
  <text x="340" y="335" text-anchor="middle" font-family="sans-serif" font-size="12" font-weight="400" letter-spacing="3" fill="#c45e30">plan your next adventure</text>
</svg>
